<?xml version="1.0" encoding="UTF-8"?>
<svg width="512" height="512" viewBox="0 0 24 24" fill="none" xmlns="http://www.w3.org/2000/svg">
  <defs>
    <linearGradient id="gradient" x1="0%" y1="0%" x2="100%" y2="100%">
      <stop offset="0%" style="stop-color:#3B82F6"/>
      <stop offset="100%" style="stop-color:#1D4ED8"/>
    </linearGradient>
  </defs>
  <path d="M21 16V8a2 2 0 0 0-1-1.73l-7-4a2 2 0 0 0-2 0l-7 4A2 2 0 0 0 3 8v8a2 2 0 0 0 1 1.73l7 4a2 2 0 0 0 2 0l7-4A2 2 0 0 0 21 16z" stroke="url(#gradient)" stroke-width="2" stroke-linecap="round" stroke-linejoin="round"/>
  <path d="M12 22.08V12" stroke="url(#gradient)" stroke-width="2" stroke-linecap="round" stroke-linejoin="round"/>
  <path d="M12 12L3.27 6.96" stroke="url(#gradient)" stroke-width="2" stroke-linecap="round" stroke-linejoin="round"/>
  <path d="M12 12l8.73-5.04" stroke="url(#gradient)" stroke-width="2" stroke-linecap="round" stroke-linejoin="round"/>
</svg>